<svg xmlns="http://www.w3.org/2000/svg" viewBox="0 0 947.09 700.58"><defs><style>.cls-1{opacity:0.5;}.cls-2{fill:#eed5d5;}.cls-3{fill:#292949;}.cls-4{fill:#353a85;}.cls-11,.cls-5{fill:#601748;}.cls-6{fill:#b97262;}.cls-7{fill:#efbfa5;}.cls-8{fill:#d67086;}.cls-9{fill:#782a40;}.cls-10{fill:#f7f7f7;}.cls-11{opacity:0.13;}.cls-12{fill:#707f78;}.cls-13{fill:#a5a8aa;}.cls-14{fill:#efd0d0;}.cls-15{fill:#fff;}</style></defs><title>myHeroAsset 3</title><g id="Layer_2" data-name="Layer 2"><g id="shadow"><g class="cls-1"><path class="cls-2" d="M441.61,607.18c-27.35.07-54.7.67-82,3.44-10.29,1-20.37,3.33-30.69,4.26-20.61,1.85-40.85,5.29-61.53,6.88-16.65,1.28-33.38,2-50,3.66a193.09,193.09,0,0,1-48.26-1.34c-11.44-1.86-22.93-2.91-34.17-5.9-12.58-3.35-26.25-5.74-39.35-5.65-18.69.12-36.89.14-54.78,6-6.28,2.07-14,5.48-18.73,9.83-10.91,10-12.39,34.82-1.49,45.15,18.36,17.39,57.53,24.21,83.26,24.53,28.19.35,55.58-1.55,83.82-2.67,26.24-1,52.41-2.52,78.69-2.47,53.68.11,107.36,0,160.94-3.26,50.34-3.07,100.8-2,151.25-2,51.73,0,103.12.37,154.48,6.63,22.38,2.73,45.18,3.68,67.67,5.59,20.14,1.71,39.5,0,59.56-1.61a153.31,153.31,0,0,0,48.89-11.92c12.11-5.27,33.71-21.64,37.43-34.22,10.42-35.26-146.78-34.41-170.92-34.34-27,.09-54.21.9-81.19,0-11.35-.39-22.53-2.41-33.61-4.63s-22.15-1.64-33.34-2.57c-46.66-3.86-93.41-3.3-140.22-3.3C472.09,607.26,456.85,607.13,441.61,607.18Z"/></g></g><g id="object"><polygon class="cls-3" points="903.89 464.26 899.33 548.94 890.84 663.27 878.12 664.17 862.67 560.34 841.3 472.48 903.89 464.26"/><polygon class="cls-4" points="878.58 669.53 892.81 675.42 899.2 668.06 891.84 661.67 878.09 662.65 878.58 669.53"/><polygon class="cls-3" points="806.42 457.92 803.63 508.74 811.91 659.85 824.64 660.49 843.73 561.38 860.56 452.69 806.42 457.92"/><polygon class="cls-4" points="824.3 662.87 810.19 669.07 803.65 664.82 810.88 658.28 824.65 658.97 824.3 662.87"/><path class="cls-5" d="M875.58,301.84l-39.87-2.62s-22,3.27-34.81,56.33c-7.13,29.52-7.77,75.6-6.94,110.67,1.14,5,7.49,26.63,30.37,22,39.29-8,60.07-15.26,77.43-12.78,14.8,2.58,12.73-17.56,10.48-32.91l-7.81-47.46Z"/><path class="cls-6" d="M865.88,252.75c-10.1-1.79-20.48-3.34-30.41-.95-2.18.52-4.5,1.39-5.61,3.33a8.75,8.75,0,0,0-.83,2.46c-2.14,9.5-4.77,23.56,1.77,32a15.49,15.49,0,0,0,4.63,3.84,22,22,0,0,0,7.52,2.6,39.71,39.71,0,0,1-2,6.92c2.43,3.36,13.13,3.33,15-.06q0-4.3,0-8.61a21.25,21.25,0,0,0,3.66-2.1,24.17,24.17,0,0,0,8.8-13.06c1.67-5.64,4.13-11,5.64-16.77.55-2.09,1-4.47-.21-6.29s-3.76-2.51-6-2.92Z"/><path class="cls-3" d="M832.8,259.49c4.81-3.38,12.18-5.06,16.84-4.91,14.1.44,19.68,10.55,21,23.45,3.67-5.08,10.68-11.57,10.86-17.93.15-5.2-.86-12.24-4-16.6-2.89-4.08-9.94-6.09-14.17-8.35l-12-6.38a5.91,5.91,0,0,0-5.89-.51l-27.33,8.28c-1.75.53-3.74,1.28-4.32,3a5.81,5.81,0,0,0,.21,3.28c1.24,4.74,3.45,9.54,4.15,14.36.68,2.79,3,17.14,7.86,15.27,1.36-2.45,1.46-5.41,2.5-8A11.46,11.46,0,0,1,832.8,259.49Z"/><polygon class="cls-5" points="835.71 299.23 821.22 304.3 769.95 362.64 767.53 381.27 794.89 422.51 801.16 406.73 789.03 375.92 805.75 363.08 826.59 310.47 835.71 299.23"/><polygon class="cls-5" points="867.3 305.59 893.37 274.98 883.65 195.35 895.42 189.59 915.07 269.96 910.91 290.37 882.07 333.83 867.3 305.59"/><polygon class="cls-6" points="892.9 190.83 892.6 183.51 883.72 172.72 878.16 178.1 882.35 187.85 880.1 191.36 883.65 195.35 892.9 190.83"/><polygon class="cls-7" points="183.56 286.95 196.72 277.75 194.85 269.36 181.51 273.96 175.07 278.16 175.07 282.81 183.56 286.95"/><g id="_Group_" data-name="&lt;Group&gt;"><g id="_Group_2" data-name="&lt;Group&gt;"><g id="_Group_3" data-name="&lt;Group&gt;"><g id="_Group_4" data-name="&lt;Group&gt;"><path class="cls-3" d="M58.53,641.79a5.23,5.23,0,0,0-4.73-2,5.35,5.35,0,0,0-4,3,10.17,10.17,0,0,0-.68,3.41c-.5,6-.45,20.26,7.55,22.31,3.36.86,6.14-4.51,7-7.52C65.07,656.41,63.07,646.79,58.53,641.79Z"/></g><g id="_Group_5" data-name="&lt;Group&gt;"><path class="cls-7" d="M61.37,551.23,61,587.85c.49,16.26-2.05,32.62-1.57,48.88.11,3.74,1.09,7.68.14,11.39s-3.87,4.27-6.89,2.43c-4.05-2.46-3.4-8.21-4.07-12.4-1.85-11.52-4-23-6-34.48-.95-5.64,1-13.54.58-19.25l-5.92-30.69Z"/></g></g><g id="_Group_6" data-name="&lt;Group&gt;"><polygon class="cls-3" points="19.54 492.07 35.47 562.86 38.86 629.71 64.13 629.14 71 442.15 22.01 443.04 19.54 492.07"/></g><g id="_Group_7" data-name="&lt;Group&gt;"><g id="_Group_8" data-name="&lt;Group&gt;"><g id="_Group_9" data-name="&lt;Group&gt;"><path class="cls-3" d="M94.67,637.48a5.13,5.13,0,0,0-4.8-1.75A5.46,5.46,0,0,0,86,639a10.31,10.31,0,0,0-.53,3.45c-.24,6,.42,20.3,8.47,21.88,3.39.66,6.05-1.89,6.82-5C101.94,654.7,99.41,642.22,94.67,637.48Z"/></g><g id="_Group_10" data-name="&lt;Group&gt;"><path class="cls-7" d="M81.35,556.37l2.14,36.56c.18,10.16,1.53,20.24,2.58,30.33,1,9.37-.54,19.14,4.35,27.66,1.54,2.67,4.64,4.45,6.81,1.21,1.67-2.5.68-6.68,1-9.52,1.31-11.59,2.94-23.14,4.33-34.72.68-5.68-1.64-13.48-1.49-19.2l4.46-30.93Z"/></g></g><g id="_Group_11" data-name="&lt;Group&gt;"><polygon class="cls-3" points="113.33 487.74 115.39 556.46 104.6 625.95 78.9 626.72 80.03 551.51 66.43 489.15 61.87 448.32 102.65 443.51 113.33 487.74"/></g></g><g id="_Group_12" data-name="&lt;Group&gt;"><polygon class="cls-5" points="81.06 302.88 37.13 301.83 11.65 349.21 20.7 393.59 22.32 446.7 85 447.55 105.62 444.2 100.14 387.46 103.01 318.22 81.06 302.88"/></g><g id="_Group_13" data-name="&lt;Group&gt;"><polygon class="cls-5" points="35.67 305.1 0 359.43 5.36 389.69 60.6 427.96 71 418.87 34.07 372.18 35.5 342.68 35.67 305.1"/></g><g id="_Group_14" data-name="&lt;Group&gt;"><polygon class="cls-5" points="78.4 333.55 120.62 348.78 145.05 342.76 187.27 287.37 172.57 280.97 128.23 319.04 88.09 307.02 78.4 333.55"/></g></g><g id="_Group_15" data-name="&lt;Group&gt;"><polygon class="cls-8" points="50.12 302.63 63.76 321.89 70.16 321.37 80.84 301.83 50.12 302.63"/></g><g id="_Group_16" data-name="&lt;Group&gt;"><polygon class="cls-7" points="60.92 421.18 60.69 428.59 73.77 433.35 81.31 427.64 81.31 419.01 74.03 418.61 73.8 416.71 71.42 415.18 60.92 421.18"/></g></g><path class="cls-7" d="M66.22,264c2.85-2.51,6.11-3,9.74-3,1.72,0,2.29.43,3.18.28a4.37,4.37,0,0,0,1.51-.67c1.3-.81,2.46-2.93,3.07-4.66,3.37,2.13,5.82,6,6.5,11.84.73,6.37.72,13.1-1.46,19.47S81.92,299.59,75.87,302c-.35.14-.7.26-1,.37a15.53,15.53,0,0,1-7.33.65l-7.62-3.63q-.57-.48-1.1-1C56.26,287.49,59,270.35,66.22,264Z"/><path class="cls-3" d="M2.89,395.22a17.15,17.15,0,0,0,4.72,8.94q.29-1.75.6-3.48-.31,1.73-.6,3.48a21.58,21.58,0,0,0,5.33,4c5,2.67,10.78,3.51,16.44,3.5,4.53,0,9.13-.52,13.55.45s8.81,3.85,9.93,8.24c.62,2.42.42,5.47,2.51,6.83a6.46,6.46,0,0,0,3.4.73c3.58.1,7.66,0,10.06-2.65,3.73-4.12,1.55-12.37,6.58-14.71,1.47-.69,3.18-.58,4.78-.85,6.81-1.15,10.14-8.86,9.49-15.93a17.37,17.37,0,0,0-.92-4.25c-2.81-7.85-9.34-13.68-14.28-20.4C64.85,356,58.33,338.49,64.26,323a42.22,42.22,0,0,0,1.57-4.44,10.93,10.93,0,0,0,.37-2.53c.09-4.63-3.36-8.45-5.59-12.51q-.31-.57-.59-1.2a21.62,21.62,0,0,1-1.14-3.39l-.13-.56c-6.84-6.82-9.58-19.49-5.08-29q.38-.81.81-1.58-.43.77-.81,1.58c-4.5,9.47-1.76,22.14,5.08,29-2.5-10.85.21-28,7.46-34.38,2.85-2.51,6.11-3,9.74-3,1.72,0,2.29.43,3.18.28a4.36,4.36,0,0,0,1.51-.67c1.3-.81,2.46-2.93,3.07-4.66,3.37,2.13,5.82,6,6.5,11.84.73,6.37.72,13.1-1.46,19.47S81.92,299.59,75.87,302c-.35.14-.7.26-1,.37A8.59,8.59,0,0,0,76,304c3.31,3.64,8.63,4.49,13.51,5.12a3.61,3.61,0,0,0,1.77-.07,2.54,2.54,0,0,0,1.39-2.4,10.31,10.31,0,0,0-.62-2.87c-2.84-9.88,2.19-21.17,3-31.13s-1.22-20.76-9.19-27.48A21.46,21.46,0,0,0,82,246.65l-.39-.49c-11.55-13.87-27.86-2-36.63,8.58-7.23,8.73-13.26,18.75-16,29.83-2.59,10.36-3.45,25.59-2.36,36.18.64,6.18,3.08,12.25,4.38,18.31a26.89,26.89,0,0,1,.36,11.32c-1.67,7.88-7.91,13.66-14,19.13q-.83,2.13-1.65,4.32T14,378.27q-.52,1.45-1,3,.49-1.5,1-3,.81-2.26,1.63-4.45t1.65-4.32l-2.51,2.26C8,377.92,1.35,386.19,2.89,395.22ZM63.62,257.95a27.16,27.16,0,0,1,2.76-1.6A27.16,27.16,0,0,0,63.62,257.95Z"/><rect class="cls-8" x="687.98" y="12.79" width="185.29" height="144.63"/><path class="cls-9" d="M679.42,89.62l.88,121.87,177.4-1.28c13.42-.1,24.21-11.8,24.11-26.14l-.69-95.9-100.4,63.6Z"/><rect class="cls-10" x="721.5" y="39.7" width="137.16" height="2.95"/><rect class="cls-10" x="702.58" y="62.72" width="156.08" height="3.06"/><rect class="cls-10" x="702.58" y="85.8" width="156.08" height="3.06"/><polygon class="cls-5" points="184.49 178.64 158.94 231.89 158.87 156.55 409.6 0 184.49 178.64"/><polygon class="cls-11" points="158.93 157.12 309.53 78.99 183.77 180.14 159.13 231.05 158.93 157.12"/><polygon class="cls-5" points="158.94 231.89 183.72 179.46 409.04 0.78 158.94 231.89"/><polygon class="cls-12" points="409.04 0.78 409.6 0 406.68 2.26 409.04 0.78"/><polygon class="cls-9" points="409.04 0.78 406.68 2.26 183.78 179.13 183.52 179.28 255.36 243.81 409.04 0.78"/><polygon class="cls-9" points="409.6 0 97.21 101.76 158.51 156.82 406.68 2.26 409.6 0"/><polygon class="cls-4" points="284.94 654.96 283.94 662.77 298.55 669.61 307.36 665.78 300.56 656.97 285.94 647.15 284.94 654.96"/><polygon class="cls-13" points="284.45 652.34 295.72 552.75 282.16 441.25 285.2 417.53 345.77 415.23 347.96 453.83 337.79 552.9 299.54 657.43 284.45 652.34"/><polygon class="cls-5" points="351.46 305.04 381.93 313.33 417.16 375.77 400.47 391.22 376.98 363.41 351.46 305.04"/><polygon class="cls-13" points="390.22 426.39 390.38 526.9 370.15 656.28 355.58 656.13 347.58 536.49 328.85 416.73 390.22 426.39"/><polygon class="cls-4" points="355.61 662.27 371.28 667.32 379.23 662.51 371.43 654.56 355.69 654.4 355.61 662.27"/><path class="cls-5" d="M275.89,460.58c.14-4.36.38-8,.42-9.29.31-11.68,1.35-23.34,2.82-34.94,1.31-10.4,3-36.2,4.74-46.53,1.47-8.53,6.59-29.82,10.29-37.73,9.2-19.68,6.36-21.49,46.76-27.34,17.71-2.56,21.89,8.47,36.37,21.16,1.43,1.25,1.35,8.7,1.68,10.68.58,3.48,1.21,6.94,1.92,10.4.56,2.71,1.18,5.42,1.88,8.11h0s12.15,55.3,20.19,67,24.64,28.16-3.13,38.19a99.31,99.31,0,0,1-15,3.91s-22.71-2.52-34.39-2.44a198.41,198.41,0,0,0-32.14,3c-7.07,1.18-14.29,2.9-20.62,6.2-6,3.15-10.39,7.79-16.52,11.06a3.2,3.2,0,0,1-1.88.54C275.76,482.1,275.6,469.74,275.89,460.58Z"/><path class="cls-6" d="M341,310.29c-2,1-6.85,1.37-11.87-.6a2.62,2.62,0,0,1-1.68-2.46,68,68,0,0,1,.73-9.11c-3.76-1.32-8.11-3.31-8.77-7.24a11.25,11.25,0,0,1,.22-3.75l2.65-15.36a13.73,13.73,0,0,1,1.59-5.11c1.69-2.66,5-3.83,8.08-4.37,7.93-1.38,16.57.34,22.71,5.53a12.29,12.29,0,0,1,3.84,5.06c1.11,3.11.28,6.54-.56,9.73l-2.32,8.84c-.89,3.39-2.18,7.24-5.44,8.52-1.73.68-3.78.48-5.35,1.48C342,303.22,342.39,307.34,341,310.29Z"/><path class="cls-3" d="M386.71,259.23a33.23,33.23,0,0,1,2.56-3.67c2-2.51,4.54-4.65,6.17-7.44s2.21-6.55.25-9.11a10,10,0,0,0-5.32-3.07,38.67,38.67,0,0,0-20.34-.38c-6.33,1.61-12,4.28-18.38,1.9-6-2.24-10.32-1.33-16.58.91-6.78,2.42-15.87,3-22,6.4a18.1,18.1,0,0,0-6.2,6.11,27.27,27.27,0,0,0-.07,28.83,39,39,0,0,0,4.24,5.35c3.2,3.47,7,7.75,11.42,9,.1-3.93-3.48-16.34-.46-19.56,4.79-5.12,15.64-3.33,21.58-2.07,6.49,1.37,12.27,6,18.7,7,4.63.71,10.54-1.56,14.47-4C381.6,272.51,383.87,263.9,386.71,259.23Z"/><polygon class="cls-5" points="307.36 312.31 282.16 334.39 254.03 393.49 289.55 435.74 295.66 412.11 307.36 312.31"/><polygon class="cls-9" points="480.11 334.42 168.51 357.88 331.63 443.28 480.11 334.42"/><path class="cls-9" d="M158.75,365,173.85,565.7l292.1-22c22.09-1.66,38.56-22.15,36.78-45.77L490.85,340l-158.26,116Z"/><g id="_Group_17" data-name="&lt;Group&gt;"><g id="_Group_18" data-name="&lt;Group&gt;"><g id="_Group_19" data-name="&lt;Group&gt;"><g id="_Group_20" data-name="&lt;Group&gt;"><path class="cls-3" d="M679.28,649.53a5.22,5.22,0,0,1,4.72-2,5.34,5.34,0,0,1,4,3,10.14,10.14,0,0,1,.68,3.4c-.15-1.79,1.09,20-7.53,22.26-3.35.86-6.13-1.52-7-4.53C672.76,667.09,674.75,654.52,679.28,649.53Z"/></g><g id="_Group_21" data-name="&lt;Group&gt;"><path class="cls-7" d="M676.45,559.17l.42,36.53c-.49,16.23,2,32.55,1.56,48.77-.11,3.73-1.08,7.67-.14,11.37s3.86,4.26,6.88,2.43c4-2.45,3.39-8.19,4.06-12.37,1.85-11.49,4-22.93,6-34.41.95-5.63-1-13.51-.58-19.21l5.9-30.62Z"/></g></g><g id="_Group_22" data-name="&lt;Group&gt;"><polygon class="cls-9" points="718.19 500.14 702.29 570.78 698.91 637.48 673.7 636.91 666.84 450.34 715.72 451.22 718.19 500.14"/></g><g id="_Group_23" data-name="&lt;Group&gt;"><g id="_Group_24" data-name="&lt;Group&gt;"><g id="_Group_25" data-name="&lt;Group&gt;"><path class="cls-3" d="M643.22,648.21a5.12,5.12,0,0,1,4.79-1.75,5.45,5.45,0,0,1,3.83,3.23,10.29,10.29,0,0,1,.53,3.44c-.07-1.86-.1,20.19-8.45,21.83-3.38.66-6-1.89-6.8-5C636,665.39,638.49,652.93,643.22,648.21Z"/></g><g id="_Group_26" data-name="&lt;Group&gt;"><path class="cls-7" d="M656.51,564.3l-2.14,36.47c-.17,10.14-1.53,20.19-2.57,30.26-1,9.35.54,19.09-4.35,27.6-1.53,2.67-4.63,4.44-6.8,1.2-1.67-2.5-.68-6.66-1-9.5-1.31-11.56-2.93-23.09-4.32-34.65-.68-5.66,1.64-13.45,1.49-19.16l-4.45-30.86Z"/></g></g><g id="_Group_27" data-name="&lt;Group&gt;"><polygon class="cls-9" points="624.6 495.82 622.55 564.39 633.31 633.72 658.96 634.49 657.83 559.45 671.4 497.23 675.95 456.49 635.26 451.69 624.6 495.82"/></g></g><g id="_Group_28" data-name="&lt;Group&gt;"><polygon class="cls-14" points="656.8 311.37 700.64 310.32 726.06 357.6 717.02 401.88 715.41 454.87 652.88 455.72 632.3 452.38 637.76 395.76 634.63 320.13 656.8 311.37"/></g><g id="_Group_29" data-name="&lt;Group&gt;"><polygon class="cls-14" points="702.09 313.58 737.68 367.79 732.33 397.99 677.21 436.17 666.84 427.11 703.69 380.52 702.26 351.08 702.09 313.58"/></g><g id="_Group_30" data-name="&lt;Group&gt;"><polygon class="cls-14" points="654.6 340.02 631.77 385.67 607.14 390.56 545.79 363.77 556.38 351.77 612.33 362.01 634.63 320.13 654.6 340.02"/></g><g id="_Group_31" data-name="&lt;Group&gt;"><g id="_Group_32" data-name="&lt;Group&gt;"><path class="cls-7" d="M659.54,274.64c6.61-19.22,32-12,37.21,5.1,3.41,11.16-5.21,25.64-16.77,28.85a11.34,11.34,0,0,0-.09,1.2,37.53,37.53,0,0,1-.49,5.35c-.1.67-10.22-1.28-11.35-1.5a1.53,1.53,0,0,1-1-.52c-.41-.64.26-2.51.33-3.21l.26-2.5c-5.7-2.78-9.3-8.71-10.31-14.75S657.56,280.41,659.54,274.64Z"/></g><g id="_Group_33" data-name="&lt;Group&gt;"><g id="_Group_34" data-name="&lt;Group&gt;"><path class="cls-3" d="M676.09,257.27a10.07,10.07,0,0,1,2.29,5.16,8,8,0,0,1,.2,3.34c-.94,4.36-5.27,4.13-8.61,5.54a22.31,22.31,0,0,0-10,8.6c-3.62,5.76-2,13.16-.52,19.51.52,2.24,1.56,5.56-.18,7.56s-5.84,1.71-8,.67c-1.93-1-3.52-2.72-5.63-3.07s-5.27.61-6.32-1.45a14,14,0,0,0-.68-1.8c-1.24-1.77-4.32.3-6.07-.95-1.07-.77-1.07-2.41-.7-3.7s1-2.61.72-3.93a13,13,0,0,0-1.54-3.06,6,6,0,0,1,.83-6.41c2.76-3.2,8.11-2.59,11.07-5.6,1.54-1.57,2.14-3.83,2.71-6s1.26-4.39,2.91-5.84c2-1.79,5-1.49,7-3.61,1.18-1.25,2-2.87,3.29-4,1.75-1.43,5.16-2.53,7.33-3.26A9.53,9.53,0,0,1,676.09,257.27Z"/></g><g id="_Group_35" data-name="&lt;Group&gt;"><path class="cls-3" d="M692.14,287.94c.12,6.32-3,13.16-.11,18.73s10.27,6.63,16.52,6.92c1,0,14.21,1.19,14.27.94,1-4.41,2-8.9,4.31-12.77s6.15-7.07,10.56-7.35c-1.27-.22-1.91-1.78-1.77-3.09a20.88,20.88,0,0,1,1.22-3.76,8.85,8.85,0,0,0-2.31-8.9c-4.66-4.35-13.12-2.54-17.12-7.53-2.48-3.1-2.18-7.59-3.48-11.37-2.51-7.31-10.51-8.84-16.49-12.14-6.31-3.48-12.26-5.39-19.54-4.18-9,1.51-15.75,10.7-12.26,19.35,4.47,11.1,22.33,10.14,25.67,21.41A13.92,13.92,0,0,1,692.14,287.94Z"/></g></g></g></g><g id="_Group_36" data-name="&lt;Group&gt;"><polygon class="cls-9" points="687.67 311.12 674.07 330.34 667.67 329.82 657.02 310.32 687.67 311.12"/></g></g><path class="cls-15" d="M618.69,455.74a3.85,3.85,0,0,1-2.78-1.15l-31-31.75-19.24,24.63a3.42,3.42,0,0,1-2.74,1.36,4.49,4.49,0,0,1-4-2.83L513.33,323.19a3.51,3.51,0,0,1,.86-3.95,3.38,3.38,0,0,1,2.68-1.34,3.92,3.92,0,0,1,1.46.29L640,366.84a4.16,4.16,0,0,1,2.69,3.3,4.11,4.11,0,0,1-1.74,3.83l-24.66,18.3L647.18,424a4,4,0,0,1,0,5.63l-25.63,25a4.11,4.11,0,0,1-2.85,1.15Zm-34.17-42.92a4.12,4.12,0,0,1,2.91,1.17l31.37,32.15,19.92-19.43-31.3-32.09a3.87,3.87,0,0,1-1.14-3,4.35,4.35,0,0,1,1.8-3.12l22.61-16.78L524,329l40,107.75,17.67-22.62A3.57,3.57,0,0,1,584.53,412.82Z"/><path class="cls-15" d="M648.25,422.91l-15-15.34-14.75-15.12,10.26-7.62,13-9.66a5.52,5.52,0,0,0-1.29-9.73l-41.35-16.54-65.34-26.13L525,319.23l-6.06-2.42a5.41,5.41,0,0,0-2-.4,4.85,4.85,0,0,0-3.79,1.82,5,5,0,0,0-1.16,5.49l1.64,4.43,13.86,37.32,24.5,66,2.83,7.62,2.78,7.47a6,6,0,0,0,5.41,3.81,4.89,4.89,0,0,0,3.92-1.94l9.79-12.54,8.39-10.74L596.65,437l14,14.34,4.19,4.29a5.34,5.34,0,0,0,3.86,1.61,5.62,5.62,0,0,0,3.9-1.58l12.61-12.31,13-12.69A5.49,5.49,0,0,0,648.25,422.91Zm-2.13,5.61-25.62,25a2.59,2.59,0,0,1-1.8.72,2.37,2.37,0,0,1-1.71-.7l-4.19-4.29-28-28.69-20.3,26a1.93,1.93,0,0,1-1.56.78,3,3,0,0,1-2.6-1.85l-5.61-15.09-24.5-66-15.51-41.75a2,2,0,0,1,.57-2.41,1.89,1.89,0,0,1,1.57-.86,2.42,2.42,0,0,1,.9.19l14.95,6,65.34,26.13,41.35,16.54a2.52,2.52,0,0,1,.61,4.54l-26,19.32,2.18,2.24L646.1,425A2.52,2.52,0,0,1,646.12,428.52Z"/><path class="cls-15" d="M608.49,393.57a2.53,2.53,0,0,1,.48-3.9l24.77-18.38-10.58-4.23-65.34-26.13-36.44-14.57,3.73,10.05,24.5,66,13.9,37.41,19.32-24.73a2.08,2.08,0,0,1,1.68-.73,2.62,2.62,0,0,1,1.84.71l4.19,4.29,28.22,28.93,22.07-21.53-2.43-2.49ZM618.83,444l-6.23-6.39-19.9-20.4-.64-.65-3.55-3.64a5.57,5.57,0,0,0-4-1.62,5.06,5.06,0,0,0-4,1.89l-9.66,12.37-6.36,8.14-4.81-12.95-7.22-19.43-24.5-66-1.38-3.71,30.16,12.06,32.67,13.06,32.67,13.06,5.42,2.17.17.07-7.86,5.83-12.6,9.35a5.85,5.85,0,0,0-2.4,4.2,5.35,5.35,0,0,0,1.56,4.21l15,15.34,15,15.34.33.34Z"/><polygon class="cls-9" points="517.13 321.99 562.75 444.8 584.62 416.8 618.73 451.77 631.54 439.27 644.36 426.77 610.24 391.8 638.76 370.63 517.13 321.99"/><g id="_Group_37" data-name="&lt;Group&gt;"><polygon class="cls-7" points="654.68 431.87 654.91 439.27 641.86 444.02 634.34 438.32 634.34 429.71 641.6 429.31 641.83 427.41 644.2 425.88 654.68 431.87"/></g><polygon class="cls-6" points="259.14 354.95 266.52 345.09 281.51 342.18 289.58 350.23 275.29 365.11 259.14 354.95"/><polygon class="cls-6" points="378.42 340.7 385.8 330.84 400.79 327.93 408.86 335.98 394.57 350.86 378.42 340.7"/></g></g></svg>